<svg xmlns="http://www.w3.org/2000/svg" xmlns:xlink="http://www.w3.org/1999/xlink" width="793" zoomAndPan="magnify" viewBox="0 0 595.5 842.249979" height="1122" preserveAspectRatio="xMidYMid meet" version="1.0"><defs><clipPath id="b0cb06893a"><path d="M 178.589844 301.875 L 416.328125 301.875 L 416.328125 539 L 178.589844 539 Z M 178.589844 301.875 " clip-rule="nonzero"/></clipPath><clipPath id="0308f1c3a6"><path d="M 248 348 L 351 348 L 351 539.613281 L 248 539.613281 Z M 248 348 " clip-rule="nonzero"/></clipPath></defs><g clip-path="url(#b0cb06893a)"><path fill="#1877f2" d="M 416.328125 420.742188 C 416.328125 355.09375 363.105469 301.875 297.457031 301.875 C 231.808594 301.875 178.589844 355.09375 178.589844 420.742188 C 178.589844 480.074219 222.058594 529.25 278.882812 538.167969 L 278.882812 455.105469 L 248.703125 455.105469 L 248.703125 420.742188 L 278.882812 420.742188 L 278.882812 394.554688 C 278.882812 364.761719 296.628906 348.308594 323.78125 348.308594 C 336.789062 348.308594 350.390625 350.628906 350.390625 350.628906 L 350.390625 379.882812 L 335.402344 379.882812 C 320.636719 379.882812 316.03125 389.046875 316.03125 398.445312 L 316.03125 420.742188 L 349 420.742188 L 343.730469 455.105469 L 316.03125 455.105469 L 316.03125 538.167969 C 372.859375 529.25 416.328125 480.074219 416.328125 420.742188 " fill-opacity="1" fill-rule="nonzero"/></g><g clip-path="url(#0308f1c3a6)"><path fill="#ffffff" d="M 343.730469 455.105469 L 349 420.742188 L 316.03125 420.742188 L 316.03125 398.445312 C 316.03125 389.046875 320.636719 379.882812 335.402344 379.882812 L 350.390625 379.882812 L 350.390625 350.628906 C 350.390625 350.628906 336.789062 348.308594 323.78125 348.308594 C 296.628906 348.308594 278.882812 364.761719 278.882812 394.554688 L 278.882812 420.742188 L 248.703125 420.742188 L 248.703125 455.105469 L 278.882812 455.105469 L 278.882812 538.167969 C 284.9375 539.117188 291.140625 539.613281 297.457031 539.613281 C 303.777344 539.613281 309.980469 539.117188 316.03125 538.167969 L 316.03125 455.105469 L 343.730469 455.105469 " fill-opacity="1" fill-rule="nonzero"/></g></svg>