<svg xmlns="http://www.w3.org/2000/svg" xmlns:xlink="http://www.w3.org/1999/xlink" width="793" zoomAndPan="magnify" viewBox="0 0 595.5 842.249979" height="1122" preserveAspectRatio="xMidYMid meet" version="1.0"><defs><clipPath id="02bb80224c"><path d="M 178.589844 301.875 L 416.328125 301.875 L 416.328125 539.613281 L 178.589844 539.613281 Z M 178.589844 301.875 " clip-rule="nonzero"/></clipPath></defs><g clip-path="url(#02bb80224c)"><path fill="#0277b5" d="M 396.464844 301.875 L 198.570312 301.875 C 187.628906 301.875 178.828125 310.792969 178.828125 321.617188 L 178.828125 519.871094 C 178.828125 530.8125 187.746094 539.613281 198.570312 539.613281 L 396.347656 539.613281 C 407.289062 539.613281 416.089844 530.691406 416.089844 519.871094 L 416.089844 321.617188 C 416.207031 310.792969 407.40625 301.875 396.464844 301.875 Z M 249.113281 497.988281 L 214.03125 497.988281 L 214.03125 392.617188 L 249.113281 392.617188 Z M 231.511719 379.890625 C 220.453125 379.890625 211.53125 370.972656 211.53125 359.910156 C 211.53125 348.851562 220.453125 339.929688 231.511719 339.929688 C 242.570312 339.929688 251.492188 348.851562 251.492188 359.910156 C 251.492188 370.972656 242.570312 379.890625 231.511719 379.890625 Z M 381.125 497.988281 L 345.921875 497.988281 L 345.089844 435.429688 C 345.089844 435.429688 345.921875 418.78125 327.726562 418.898438 C 309.527344 419.019531 307.03125 435.429688 307.03125 435.429688 L 307.03125 497.988281 L 271.589844 497.988281 L 271.589844 392.617188 L 305.605469 392.617188 L 305.605469 407.125 C 305.605469 407.125 307.03125 402.367188 314.878906 396.777344 C 322.730469 391.191406 335.691406 390 341.28125 390.238281 C 346.871094 390.476562 354.484375 389.523438 367.210938 398.324219 C 380.886719 407.71875 381.242188 432.339844 381.242188 432.339844 Z M 381.125 497.988281 " fill-opacity="1" fill-rule="nonzero"/></g></svg>