<svg xmlns="http://www.w3.org/2000/svg" xmlns:xlink="http://www.w3.org/1999/xlink" width="500" zoomAndPan="magnify" viewBox="0 0 375 374.999991" height="500" preserveAspectRatio="xMidYMid meet" version="1.0"><defs><g/><clipPath id="471c62e119"><path d="M 154 127 L 259.648438 127 L 259.648438 233.3125 L 154 233.3125 Z M 154 127 " clip-rule="nonzero"/></clipPath><clipPath id="4a1f1d1e34"><path d="M 115.648438 89.3125 L 222 89.3125 L 222 195 L 115.648438 195 Z M 115.648438 89.3125 " clip-rule="nonzero"/></clipPath></defs><g clip-path="url(#471c62e119)"><path fill="#e3c4a8" d="M 235.351562 127.832031 L 235.351562 142.054688 L 245.421875 142.054688 L 245.421875 219.082031 L 168.394531 219.082031 L 168.394531 209.011719 L 154.171875 209.011719 L 154.171875 233.304688 L 259.640625 233.304688 L 259.640625 127.832031 Z M 235.351562 127.832031 " fill-opacity="1" fill-rule="nonzero"/></g><g clip-path="url(#4a1f1d1e34)"><path fill="#181818" d="M 168.394531 194.789062 L 221.128906 194.789062 L 221.128906 89.316406 L 115.65625 89.316406 L 115.65625 194.789062 Z M 206.90625 180.578125 L 168.394531 180.578125 L 168.394531 142.054688 L 206.90625 142.054688 Z M 129.878906 180.578125 L 129.878906 103.539062 L 206.90625 103.539062 L 206.90625 127.832031 L 154.171875 127.832031 L 154.171875 180.566406 Z M 129.878906 180.578125 " fill-opacity="1" fill-rule="nonzero"/></g><path fill="#e3c4a8" d="M 179.484375 153.144531 L 195.816406 153.144531 L 195.816406 169.476562 L 179.484375 169.476562 Z M 179.484375 153.144531 " fill-opacity="1" fill-rule="nonzero"/><g fill="#000000" fill-opacity="1"><g transform="translate(74.468472, 276.855971)"><g><path d="M 4.59375 -25.0625 C 5.1875 -25.0625 5.703125 -24.910156 6.140625 -24.609375 C 6.585938 -24.304688 6.8125 -23.816406 6.8125 -23.140625 L 6.8125 -10.390625 C 6.8125 -9.160156 6.914062 -8.125 7.125 -7.28125 C 7.332031 -6.4375 7.648438 -5.753906 8.078125 -5.234375 C 8.503906 -4.710938 9.050781 -4.335938 9.71875 -4.109375 C 10.394531 -3.890625 11.1875 -3.78125 12.09375 -3.78125 C 13 -3.78125 13.785156 -3.890625 14.453125 -4.109375 C 15.128906 -4.335938 15.679688 -4.710938 16.109375 -5.234375 C 16.535156 -5.753906 16.851562 -6.4375 17.0625 -7.28125 C 17.269531 -8.125 17.375 -9.160156 17.375 -10.390625 L 17.375 -23.140625 C 17.375 -23.816406 17.59375 -24.304688 18.03125 -24.609375 C 18.476562 -24.910156 19 -25.0625 19.59375 -25.0625 C 20.195312 -25.0625 20.71875 -24.910156 21.15625 -24.609375 C 21.601562 -24.304688 21.828125 -23.816406 21.828125 -23.140625 L 21.828125 -10.453125 C 21.828125 -8.390625 21.609375 -6.675781 21.171875 -5.3125 C 20.742188 -3.945312 20.117188 -2.851562 19.296875 -2.03125 C 18.472656 -1.207031 17.457031 -0.617188 16.25 -0.265625 C 15.050781 0.078125 13.664062 0.25 12.09375 0.25 C 10.519531 0.25 9.128906 0.078125 7.921875 -0.265625 C 6.710938 -0.617188 5.695312 -1.207031 4.875 -2.03125 C 4.0625 -2.851562 3.4375 -3.945312 3 -5.3125 C 2.570312 -6.675781 2.359375 -8.390625 2.359375 -10.453125 L 2.359375 -23.140625 C 2.359375 -23.816406 2.578125 -24.304688 3.015625 -24.609375 C 3.460938 -24.910156 3.988281 -25.0625 4.59375 -25.0625 Z M 4.59375 -25.0625 "/></g></g></g><g fill="#000000" fill-opacity="1"><g transform="translate(98.651554, 276.855971)"><g><path d="M 12.265625 -24.84375 C 13.773438 -24.84375 15.066406 -24.660156 16.140625 -24.296875 C 17.210938 -23.941406 18.097656 -23.445312 18.796875 -22.8125 C 19.492188 -22.175781 20.007812 -21.414062 20.34375 -20.53125 C 20.675781 -19.65625 20.84375 -18.707031 20.84375 -17.6875 L 20.84375 -17.203125 C 20.84375 -16.179688 20.671875 -15.210938 20.328125 -14.296875 C 19.984375 -13.378906 19.453125 -12.578125 18.734375 -11.890625 C 18.015625 -11.210938 17.117188 -10.671875 16.046875 -10.265625 C 14.984375 -9.859375 13.722656 -9.65625 12.265625 -9.65625 L 7.265625 -9.65625 L 7.265625 -1.84375 C 7.265625 -1.164062 7.039062 -0.675781 6.59375 -0.375 C 6.15625 -0.0820312 5.632812 0.0625 5.03125 0.0625 C 4.4375 0.0625 3.914062 -0.0820312 3.46875 -0.375 C 3.03125 -0.675781 2.8125 -1.164062 2.8125 -1.84375 L 2.8125 -21.96875 C 2.8125 -23.050781 3.023438 -23.800781 3.453125 -24.21875 C 3.878906 -24.632812 4.648438 -24.84375 5.765625 -24.84375 Z M 7.265625 -13.40625 L 11.671875 -13.40625 C 13.128906 -13.40625 14.273438 -13.679688 15.109375 -14.234375 C 15.953125 -14.796875 16.375 -15.804688 16.375 -17.265625 L 16.375 -17.65625 C 16.375 -18.351562 16.265625 -18.921875 16.046875 -19.359375 C 15.835938 -19.796875 15.539062 -20.144531 15.15625 -20.40625 C 14.78125 -20.675781 14.328125 -20.863281 13.796875 -20.96875 C 13.265625 -21.070312 12.6875 -21.125 12.0625 -21.125 L 7.265625 -21.125 Z M 7.265625 -13.40625 "/></g></g></g><g fill="#000000" fill-opacity="1"><g transform="translate(120.74988, 276.855971)"><g><path d="M 5.5625 -3.6875 C 6.300781 -3.6875 6.925781 -3.429688 7.4375 -2.921875 C 7.945312 -2.410156 8.203125 -1.785156 8.203125 -1.046875 C 8.203125 -0.304688 7.945312 0.316406 7.4375 0.828125 C 6.925781 1.335938 6.300781 1.59375 5.5625 1.59375 C 4.820312 1.59375 4.195312 1.335938 3.6875 0.828125 C 3.175781 0.316406 2.921875 -0.304688 2.921875 -1.046875 C 2.921875 -1.785156 3.175781 -2.410156 3.6875 -2.921875 C 4.195312 -3.429688 4.820312 -3.6875 5.5625 -3.6875 Z M 5.5625 -25.921875 C 6.300781 -25.921875 6.894531 -25.757812 7.34375 -25.4375 C 7.800781 -25.113281 8.019531 -24.566406 8 -23.796875 L 7.4375 -7.921875 C 7.414062 -7.203125 7.210938 -6.703125 6.828125 -6.421875 C 6.441406 -6.148438 6.019531 -6.015625 5.5625 -6.015625 C 5.09375 -6.015625 4.664062 -6.148438 4.28125 -6.421875 C 3.90625 -6.703125 3.707031 -7.203125 3.6875 -7.921875 L 3.125 -23.796875 C 3.101562 -24.566406 3.316406 -25.113281 3.765625 -25.4375 C 4.222656 -25.757812 4.820312 -25.921875 5.5625 -25.921875 Z M 5.5625 -25.921875 "/></g></g></g><g fill="#000000" fill-opacity="1"><g transform="translate(131.868537, 276.855971)"><g><path d="M 12.546875 -24.84375 C 15.210938 -24.84375 17.191406 -24.335938 18.484375 -23.328125 C 19.785156 -22.328125 20.4375 -20.769531 20.4375 -18.65625 L 20.4375 -18.25 C 20.4375 -17.664062 20.363281 -17.109375 20.21875 -16.578125 C 20.082031 -16.046875 19.859375 -15.550781 19.546875 -15.09375 C 19.234375 -14.644531 18.828125 -14.25 18.328125 -13.90625 C 17.828125 -13.570312 17.207031 -13.316406 16.46875 -13.140625 C 17.238281 -13.023438 17.9375 -12.828125 18.5625 -12.546875 C 19.1875 -12.265625 19.722656 -11.882812 20.171875 -11.40625 C 20.617188 -10.9375 20.960938 -10.367188 21.203125 -9.703125 C 21.453125 -9.046875 21.578125 -8.265625 21.578125 -7.359375 L 21.578125 -6.8125 C 21.578125 -4.707031 20.925781 -3.066406 19.625 -1.890625 C 18.332031 -0.722656 16.332031 -0.140625 13.625 -0.140625 L 5.765625 -0.140625 C 4.648438 -0.140625 3.878906 -0.347656 3.453125 -0.765625 C 3.023438 -1.179688 2.8125 -1.929688 2.8125 -3.015625 L 2.8125 -21.96875 C 2.8125 -23.050781 3.023438 -23.800781 3.453125 -24.21875 C 3.878906 -24.632812 4.648438 -24.84375 5.765625 -24.84375 Z M 7.234375 -3.828125 L 11.265625 -3.828125 C 12.234375 -3.828125 13.082031 -3.859375 13.8125 -3.921875 C 14.539062 -3.992188 15.140625 -4.148438 15.609375 -4.390625 C 16.085938 -4.640625 16.441406 -4.992188 16.671875 -5.453125 C 16.910156 -5.921875 17.03125 -6.535156 17.03125 -7.296875 L 17.03125 -7.75 C 17.03125 -8.332031 16.9375 -8.84375 16.75 -9.28125 C 16.5625 -9.71875 16.234375 -10.070312 15.765625 -10.34375 C 15.304688 -10.625 14.679688 -10.832031 13.890625 -10.96875 C 13.109375 -11.113281 12.128906 -11.1875 10.953125 -11.1875 L 7.234375 -11.1875 Z M 7.234375 -14.796875 L 10.84375 -14.796875 C 11.863281 -14.796875 12.703125 -14.847656 13.359375 -14.953125 C 14.023438 -15.054688 14.546875 -15.234375 14.921875 -15.484375 C 15.304688 -15.742188 15.566406 -16.082031 15.703125 -16.5 C 15.847656 -16.914062 15.921875 -17.453125 15.921875 -18.109375 L 15.921875 -18.421875 C 15.921875 -19.523438 15.507812 -20.253906 14.6875 -20.609375 C 13.863281 -20.972656 12.515625 -21.15625 10.640625 -21.15625 L 7.234375 -21.15625 Z M 7.234375 -14.796875 "/></g></g></g><g fill="#000000" fill-opacity="1"><g transform="translate(154.835513, 276.855971)"><g><path d="M 4.59375 -25.0625 C 5.1875 -25.0625 5.703125 -24.910156 6.140625 -24.609375 C 6.585938 -24.304688 6.8125 -23.816406 6.8125 -23.140625 L 6.8125 -10.390625 C 6.8125 -9.160156 6.914062 -8.125 7.125 -7.28125 C 7.332031 -6.4375 7.648438 -5.753906 8.078125 -5.234375 C 8.503906 -4.710938 9.050781 -4.335938 9.71875 -4.109375 C 10.394531 -3.890625 11.1875 -3.78125 12.09375 -3.78125 C 13 -3.78125 13.785156 -3.890625 14.453125 -4.109375 C 15.128906 -4.335938 15.679688 -4.710938 16.109375 -5.234375 C 16.535156 -5.753906 16.851562 -6.4375 17.0625 -7.28125 C 17.269531 -8.125 17.375 -9.160156 17.375 -10.390625 L 17.375 -23.140625 C 17.375 -23.816406 17.59375 -24.304688 18.03125 -24.609375 C 18.476562 -24.910156 19 -25.0625 19.59375 -25.0625 C 20.195312 -25.0625 20.71875 -24.910156 21.15625 -24.609375 C 21.601562 -24.304688 21.828125 -23.816406 21.828125 -23.140625 L 21.828125 -10.453125 C 21.828125 -8.390625 21.609375 -6.675781 21.171875 -5.3125 C 20.742188 -3.945312 20.117188 -2.851562 19.296875 -2.03125 C 18.472656 -1.207031 17.457031 -0.617188 16.25 -0.265625 C 15.050781 0.078125 13.664062 0.25 12.09375 0.25 C 10.519531 0.25 9.128906 0.078125 7.921875 -0.265625 C 6.710938 -0.617188 5.695312 -1.207031 4.875 -2.03125 C 4.0625 -2.851562 3.4375 -3.945312 3 -5.3125 C 2.570312 -6.675781 2.359375 -8.390625 2.359375 -10.453125 L 2.359375 -23.140625 C 2.359375 -23.816406 2.578125 -24.304688 3.015625 -24.609375 C 3.460938 -24.910156 3.988281 -25.0625 4.59375 -25.0625 Z M 4.59375 -25.0625 "/></g></g></g><g fill="#000000" fill-opacity="1"><g transform="translate(179.018594, 276.855971)"><g><path d="M 11.15625 -25.234375 C 13.65625 -25.234375 15.75 -24.800781 17.4375 -23.9375 C 17.945312 -23.6875 18.269531 -23.304688 18.40625 -22.796875 C 18.550781 -22.285156 18.484375 -21.773438 18.203125 -21.265625 C 17.929688 -20.734375 17.570312 -20.398438 17.125 -20.265625 C 16.6875 -20.140625 16.222656 -20.179688 15.734375 -20.390625 C 14.992188 -20.722656 14.285156 -20.953125 13.609375 -21.078125 C 12.941406 -21.203125 12.144531 -21.265625 11.21875 -21.265625 C 10.457031 -21.265625 9.789062 -21.175781 9.21875 -21 C 8.65625 -20.832031 8.175781 -20.601562 7.78125 -20.3125 C 7.382812 -20.019531 7.085938 -19.691406 6.890625 -19.328125 C 6.703125 -18.972656 6.609375 -18.613281 6.609375 -18.25 L 6.609375 -18.03125 C 6.609375 -17.59375 6.679688 -17.210938 6.828125 -16.890625 C 6.972656 -16.566406 7.238281 -16.269531 7.625 -16 C 8.007812 -15.738281 8.535156 -15.492188 9.203125 -15.265625 C 9.878906 -15.046875 10.75 -14.832031 11.8125 -14.625 C 14.707031 -14.019531 16.78125 -13.128906 18.03125 -11.953125 C 19.28125 -10.773438 19.90625 -9.257812 19.90625 -7.40625 L 19.90625 -7.09375 C 19.90625 -4.707031 19.128906 -2.882812 17.578125 -1.625 C 16.023438 -0.375 13.734375 0.25 10.703125 0.25 C 9.265625 0.25 7.867188 0.0703125 6.515625 -0.28125 C 5.160156 -0.644531 4.019531 -1.117188 3.09375 -1.703125 C 2.539062 -2.046875 2.226562 -2.488281 2.15625 -3.03125 C 2.082031 -3.582031 2.207031 -4.101562 2.53125 -4.59375 C 2.851562 -5.09375 3.242188 -5.398438 3.703125 -5.515625 C 4.171875 -5.640625 4.675781 -5.550781 5.21875 -5.25 C 6.019531 -4.78125 6.90625 -4.410156 7.875 -4.140625 C 8.851562 -3.878906 9.863281 -3.75 10.90625 -3.75 C 12.507812 -3.75 13.671875 -4.03125 14.390625 -4.59375 C 15.109375 -5.164062 15.46875 -5.878906 15.46875 -6.734375 L 15.46875 -6.984375 C 15.46875 -7.953125 15.085938 -8.707031 14.328125 -9.25 C 13.578125 -9.800781 12.367188 -10.238281 10.703125 -10.5625 C 9.242188 -10.84375 7.976562 -11.164062 6.90625 -11.53125 C 5.84375 -11.90625 4.957031 -12.375 4.25 -12.9375 C 3.550781 -13.507812 3.03125 -14.191406 2.6875 -14.984375 C 2.351562 -15.785156 2.1875 -16.769531 2.1875 -17.9375 L 2.1875 -18.171875 C 2.1875 -19.148438 2.378906 -20.066406 2.765625 -20.921875 C 3.148438 -21.773438 3.722656 -22.519531 4.484375 -23.15625 C 5.242188 -23.789062 6.179688 -24.296875 7.296875 -24.671875 C 8.410156 -25.046875 9.695312 -25.234375 11.15625 -25.234375 Z M 11.15625 -25.234375 "/></g></g></g><g fill="#000000" fill-opacity="1"><g transform="translate(200.769464, 276.855971)"><g><path d="M 5.03125 -25.0625 C 5.632812 -25.0625 6.15625 -24.910156 6.59375 -24.609375 C 7.039062 -24.304688 7.265625 -23.816406 7.265625 -23.140625 L 7.265625 -1.84375 C 7.265625 -1.164062 7.039062 -0.675781 6.59375 -0.375 C 6.15625 -0.0820312 5.632812 0.0625 5.03125 0.0625 C 4.4375 0.0625 3.914062 -0.0820312 3.46875 -0.375 C 3.03125 -0.675781 2.8125 -1.164062 2.8125 -1.84375 L 2.8125 -23.140625 C 2.8125 -23.816406 3.03125 -24.304688 3.46875 -24.609375 C 3.914062 -24.910156 4.4375 -25.0625 5.03125 -25.0625 Z M 5.03125 -25.0625 "/></g></g></g><g fill="#000000" fill-opacity="1"><g transform="translate(210.845748, 276.855971)"><g><path d="M 20.1875 -25.0625 C 20.71875 -25.0625 21.191406 -24.914062 21.609375 -24.625 C 22.023438 -24.332031 22.234375 -23.875 22.234375 -23.25 L 22.234375 -2.953125 C 22.234375 -1.867188 22.019531 -1.113281 21.59375 -0.6875 C 21.164062 -0.269531 20.394531 -0.0625 19.28125 -0.0625 C 18.863281 -0.0625 18.492188 -0.0976562 18.171875 -0.171875 C 17.847656 -0.242188 17.535156 -0.398438 17.234375 -0.640625 C 16.929688 -0.878906 16.617188 -1.226562 16.296875 -1.6875 C 15.972656 -2.15625 15.59375 -2.785156 15.15625 -3.578125 L 8.578125 -15.328125 C 8.234375 -15.953125 7.921875 -16.578125 7.640625 -17.203125 C 7.367188 -17.828125 7.128906 -18.535156 6.921875 -19.328125 L 6.921875 -1.734375 C 6.921875 -1.109375 6.710938 -0.648438 6.296875 -0.359375 C 5.878906 -0.078125 5.398438 0.0625 4.859375 0.0625 C 4.328125 0.0625 3.851562 -0.078125 3.4375 -0.359375 C 3.019531 -0.648438 2.8125 -1.109375 2.8125 -1.734375 L 2.8125 -22.03125 C 2.8125 -23.125 3.023438 -23.878906 3.453125 -24.296875 C 3.878906 -24.710938 4.648438 -24.921875 5.765625 -24.921875 C 6.179688 -24.921875 6.550781 -24.882812 6.875 -24.8125 C 7.195312 -24.738281 7.507812 -24.582031 7.8125 -24.34375 C 8.113281 -24.101562 8.425781 -23.75 8.75 -23.28125 C 9.082031 -22.820312 9.46875 -22.195312 9.90625 -21.40625 L 16.46875 -9.65625 C 16.820312 -9.03125 17.132812 -8.40625 17.40625 -7.78125 C 17.6875 -7.15625 17.929688 -6.453125 18.140625 -5.671875 L 18.140625 -23.25 C 18.140625 -23.875 18.347656 -24.332031 18.765625 -24.625 C 19.179688 -24.914062 19.65625 -25.0625 20.1875 -25.0625 Z M 20.1875 -25.0625 "/></g></g></g><g fill="#000000" fill-opacity="1"><g transform="translate(235.897468, 276.855971)"><g><path d="M 17.625 -24.84375 C 18.15625 -24.84375 18.539062 -24.660156 18.78125 -24.296875 C 19.019531 -23.941406 19.140625 -23.507812 19.140625 -23 C 19.140625 -22.519531 19.019531 -22.09375 18.78125 -21.71875 C 18.539062 -21.34375 18.15625 -21.15625 17.625 -21.15625 L 7.234375 -21.15625 L 7.234375 -14.59375 L 16.921875 -14.59375 C 17.429688 -14.59375 17.804688 -14.410156 18.046875 -14.046875 C 18.296875 -13.691406 18.421875 -13.269531 18.421875 -12.78125 C 18.421875 -12.300781 18.296875 -11.878906 18.046875 -11.515625 C 17.804688 -11.160156 17.429688 -10.984375 16.921875 -10.984375 L 7.234375 -10.984375 L 7.234375 -3.828125 L 17.859375 -3.828125 C 18.390625 -3.828125 18.773438 -3.640625 19.015625 -3.265625 C 19.265625 -2.890625 19.390625 -2.460938 19.390625 -1.984375 C 19.390625 -1.472656 19.265625 -1.035156 19.015625 -0.671875 C 18.773438 -0.316406 18.390625 -0.140625 17.859375 -0.140625 L 5.765625 -0.140625 C 4.648438 -0.140625 3.878906 -0.347656 3.453125 -0.765625 C 3.023438 -1.179688 2.8125 -1.929688 2.8125 -3.015625 L 2.8125 -21.96875 C 2.8125 -23.050781 3.023438 -23.800781 3.453125 -24.21875 C 3.878906 -24.632812 4.648438 -24.84375 5.765625 -24.84375 Z M 17.625 -24.84375 "/></g></g></g><g fill="#000000" fill-opacity="1"><g transform="translate(257.022906, 276.855971)"><g><path d="M 11.15625 -25.234375 C 13.65625 -25.234375 15.75 -24.800781 17.4375 -23.9375 C 17.945312 -23.6875 18.269531 -23.304688 18.40625 -22.796875 C 18.550781 -22.285156 18.484375 -21.773438 18.203125 -21.265625 C 17.929688 -20.734375 17.570312 -20.398438 17.125 -20.265625 C 16.6875 -20.140625 16.222656 -20.179688 15.734375 -20.390625 C 14.992188 -20.722656 14.285156 -20.953125 13.609375 -21.078125 C 12.941406 -21.203125 12.144531 -21.265625 11.21875 -21.265625 C 10.457031 -21.265625 9.789062 -21.175781 9.21875 -21 C 8.65625 -20.832031 8.175781 -20.601562 7.78125 -20.3125 C 7.382812 -20.019531 7.085938 -19.691406 6.890625 -19.328125 C 6.703125 -18.972656 6.609375 -18.613281 6.609375 -18.25 L 6.609375 -18.03125 C 6.609375 -17.59375 6.679688 -17.210938 6.828125 -16.890625 C 6.972656 -16.566406 7.238281 -16.269531 7.625 -16 C 8.007812 -15.738281 8.535156 -15.492188 9.203125 -15.265625 C 9.878906 -15.046875 10.75 -14.832031 11.8125 -14.625 C 14.707031 -14.019531 16.78125 -13.128906 18.03125 -11.953125 C 19.28125 -10.773438 19.90625 -9.257812 19.90625 -7.40625 L 19.90625 -7.09375 C 19.90625 -4.707031 19.128906 -2.882812 17.578125 -1.625 C 16.023438 -0.375 13.734375 0.25 10.703125 0.25 C 9.265625 0.25 7.867188 0.0703125 6.515625 -0.28125 C 5.160156 -0.644531 4.019531 -1.117188 3.09375 -1.703125 C 2.539062 -2.046875 2.226562 -2.488281 2.15625 -3.03125 C 2.082031 -3.582031 2.207031 -4.101562 2.53125 -4.59375 C 2.851562 -5.09375 3.242188 -5.398438 3.703125 -5.515625 C 4.171875 -5.640625 4.675781 -5.550781 5.21875 -5.25 C 6.019531 -4.78125 6.90625 -4.410156 7.875 -4.140625 C 8.851562 -3.878906 9.863281 -3.75 10.90625 -3.75 C 12.507812 -3.75 13.671875 -4.03125 14.390625 -4.59375 C 15.109375 -5.164062 15.46875 -5.878906 15.46875 -6.734375 L 15.46875 -6.984375 C 15.46875 -7.953125 15.085938 -8.707031 14.328125 -9.25 C 13.578125 -9.800781 12.367188 -10.238281 10.703125 -10.5625 C 9.242188 -10.84375 7.976562 -11.164062 6.90625 -11.53125 C 5.84375 -11.90625 4.957031 -12.375 4.25 -12.9375 C 3.550781 -13.507812 3.03125 -14.191406 2.6875 -14.984375 C 2.351562 -15.785156 2.1875 -16.769531 2.1875 -17.9375 L 2.1875 -18.171875 C 2.1875 -19.148438 2.378906 -20.066406 2.765625 -20.921875 C 3.148438 -21.773438 3.722656 -22.519531 4.484375 -23.15625 C 5.242188 -23.789062 6.179688 -24.296875 7.296875 -24.671875 C 8.410156 -25.046875 9.695312 -25.234375 11.15625 -25.234375 Z M 11.15625 -25.234375 "/></g></g></g><g fill="#000000" fill-opacity="1"><g transform="translate(278.773786, 276.855971)"><g><path d="M 11.15625 -25.234375 C 13.65625 -25.234375 15.75 -24.800781 17.4375 -23.9375 C 17.945312 -23.6875 18.269531 -23.304688 18.40625 -22.796875 C 18.550781 -22.285156 18.484375 -21.773438 18.203125 -21.265625 C 17.929688 -20.734375 17.570312 -20.398438 17.125 -20.265625 C 16.6875 -20.140625 16.222656 -20.179688 15.734375 -20.390625 C 14.992188 -20.722656 14.285156 -20.953125 13.609375 -21.078125 C 12.941406 -21.203125 12.144531 -21.265625 11.21875 -21.265625 C 10.457031 -21.265625 9.789062 -21.175781 9.21875 -21 C 8.65625 -20.832031 8.175781 -20.601562 7.78125 -20.3125 C 7.382812 -20.019531 7.085938 -19.691406 6.890625 -19.328125 C 6.703125 -18.972656 6.609375 -18.613281 6.609375 -18.25 L 6.609375 -18.03125 C 6.609375 -17.59375 6.679688 -17.210938 6.828125 -16.890625 C 6.972656 -16.566406 7.238281 -16.269531 7.625 -16 C 8.007812 -15.738281 8.535156 -15.492188 9.203125 -15.265625 C 9.878906 -15.046875 10.75 -14.832031 11.8125 -14.625 C 14.707031 -14.019531 16.78125 -13.128906 18.03125 -11.953125 C 19.28125 -10.773438 19.90625 -9.257812 19.90625 -7.40625 L 19.90625 -7.09375 C 19.90625 -4.707031 19.128906 -2.882812 17.578125 -1.625 C 16.023438 -0.375 13.734375 0.25 10.703125 0.25 C 9.265625 0.25 7.867188 0.0703125 6.515625 -0.28125 C 5.160156 -0.644531 4.019531 -1.117188 3.09375 -1.703125 C 2.539062 -2.046875 2.226562 -2.488281 2.15625 -3.03125 C 2.082031 -3.582031 2.207031 -4.101562 2.53125 -4.59375 C 2.851562 -5.09375 3.242188 -5.398438 3.703125 -5.515625 C 4.171875 -5.640625 4.675781 -5.550781 5.21875 -5.25 C 6.019531 -4.78125 6.90625 -4.410156 7.875 -4.140625 C 8.851562 -3.878906 9.863281 -3.75 10.90625 -3.75 C 12.507812 -3.75 13.671875 -4.03125 14.390625 -4.59375 C 15.109375 -5.164062 15.46875 -5.878906 15.46875 -6.734375 L 15.46875 -6.984375 C 15.46875 -7.953125 15.085938 -8.707031 14.328125 -9.25 C 13.578125 -9.800781 12.367188 -10.238281 10.703125 -10.5625 C 9.242188 -10.84375 7.976562 -11.164062 6.90625 -11.53125 C 5.84375 -11.90625 4.957031 -12.375 4.25 -12.9375 C 3.550781 -13.507812 3.03125 -14.191406 2.6875 -14.984375 C 2.351562 -15.785156 2.1875 -16.769531 2.1875 -17.9375 L 2.1875 -18.171875 C 2.1875 -19.148438 2.378906 -20.066406 2.765625 -20.921875 C 3.148438 -21.773438 3.722656 -22.519531 4.484375 -23.15625 C 5.242188 -23.789062 6.179688 -24.296875 7.296875 -24.671875 C 8.410156 -25.046875 9.695312 -25.234375 11.15625 -25.234375 Z M 11.15625 -25.234375 "/></g></g></g></svg>